<svg width="456" height="480" viewBox="0 0 456 480" fill="none" xmlns="http://www.w3.org/2000/svg">
<path d="M47.989 431.901H167.962V479.89H47.989C21.3551 479.89 0 458.535 0 431.901V47.989C0 35.2615 5.05597 23.0553 14.0557 14.0557C23.0553 5.05597 35.2615 0 47.989 0H335.923C348.65 0 360.857 5.05597 369.856 14.0557C378.856 23.0553 383.912 35.2615 383.912 47.989V199.154C378.633 202.034 373.594 205.393 369.275 209.712L335.923 243.064V47.989H215.951V239.945L155.964 185.957L95.978 239.945V47.989H47.989V431.901ZM452.296 275.217L420.624 243.544C415.825 238.745 407.906 238.745 403.348 243.544L379.833 267.059L428.782 316.008L452.296 292.493C457.095 287.934 457.095 280.016 452.296 275.217ZM215.951 430.941V479.89H264.899L411.986 333.044L363.037 283.855L215.951 430.941Z" fill="white"/>
</svg>
