<svg width="512" height="480" viewBox="0 0 512 480" fill="none" xmlns="http://www.w3.org/2000/svg">
<path d="M255.306 0.0084571C256.406 -0.0915391 260.406 0.70843 264.306 1.70839C268.106 2.70835 273.305 4.60828 275.805 6.10822C278.305 7.50817 282.705 11.308 285.605 14.5079C288.905 18.1078 291.805 22.6076 293.005 25.9075C294.105 28.9073 295.304 34.5071 295.604 38.407C295.904 43.4068 295.604 47.1067 294.305 51.4065C293.405 54.7064 291.105 59.6062 289.405 62.4061C287.605 65.106 284.405 68.9058 282.205 70.8057C280.105 72.7057 275.405 75.6056 271.805 77.3055C266.006 80.1054 264.306 80.4054 255.806 80.4054C247.306 80.4054 245.606 80.1054 239.807 77.3055C236.207 75.6056 231.507 72.7057 229.407 70.8057C227.207 68.9058 224.007 65.106 222.207 62.4061C220.507 59.6062 218.307 54.9063 217.407 51.9065C216.508 48.9066 215.808 43.9068 215.808 40.9069C215.808 37.907 216.508 32.9072 217.407 29.9073C218.307 26.9074 220.107 22.6076 221.307 20.4077C222.607 18.2078 225.807 14.3079 228.507 11.808C231.107 9.3081 234.907 6.40821 236.807 5.40825C238.707 4.40829 243.206 2.80835 246.806 1.80839C250.406 0.808426 254.206 0.0084571 255.306 0.0084571ZM44.3141 182.001C45.9141 181.901 49.8139 182.301 52.8138 182.901C55.8137 183.501 61.2135 185.301 64.8133 187.101C68.4132 188.801 73.713 192.501 76.7129 195.301C79.9128 198.401 83.3126 203.001 85.3126 206.901C87.1125 210.5 89.1124 215.8 89.7124 218.7C90.3124 221.5 90.8123 225.6 90.8123 227.6C90.8123 229.7 86.1125 261.998 80.3128 299.397C74.613 336.796 69.2132 369.794 68.3132 372.694C67.4132 375.794 65.3133 379.494 63.0134 381.994C61.0135 384.294 57.5136 387.094 55.3137 388.194C52.6138 389.593 49.4139 390.193 45.3141 390.193C41.2143 390.193 38.1144 389.593 35.3145 388.194C33.1146 386.994 29.9147 384.594 28.2148 382.694C26.4148 380.894 24.2149 377.794 23.3149 375.894C22.215 373.694 17.8152 348.195 11.1154 304.897C5.31563 267.798 0.315826 234.699 0.115834 231.4C-0.184155 228.1 0.115834 222.7 0.815807 219.4C1.51578 216.1 3.5157 210.5 5.31563 206.901C7.21556 203.001 10.8154 198.301 13.9153 195.301C16.9152 192.501 22.215 188.801 25.8148 187.101C29.4147 185.301 34.3145 183.501 36.8144 183.001C39.3143 182.501 42.6142 182.101 44.3141 182.001ZM465.298 182.001C466.898 181.901 470.798 182.301 473.798 182.901C476.797 183.501 482.197 185.301 485.797 187.101C489.397 188.801 494.697 192.501 497.697 195.301C500.697 198.201 504.396 203.001 506.096 206.401C507.696 209.7 509.696 214.7 510.396 217.4C511.196 220.2 511.796 224.4 511.796 226.9C511.796 229.4 506.896 263.098 500.897 301.897C493.897 347.395 489.397 373.594 488.297 375.894C487.397 377.794 485.197 380.894 483.397 382.694C481.697 384.594 478.497 386.994 476.298 388.194C473.498 389.593 470.398 390.193 466.298 390.193C462.198 390.193 458.998 389.593 456.298 388.194C454.098 387.094 450.599 384.294 448.499 381.994C446.299 379.494 444.199 375.794 443.299 372.694C442.399 369.794 436.999 336.796 431.299 299.397C425.499 261.998 420.8 229.7 420.8 227.6C420.8 225.6 421.3 221.5 421.9 218.6C422.5 215.8 424.4 210.7 426.099 207.4C427.699 204.101 431.199 199.101 433.799 196.401C436.699 193.401 441.499 189.901 445.899 187.601C449.999 185.501 455.298 183.501 457.798 183.001C460.298 182.501 463.598 182.101 465.298 182.001ZM259.306 250.599C263.106 250.899 268.805 251.999 271.805 253.099C274.805 254.099 279.205 256.099 281.505 257.399C283.905 258.799 288.205 262.298 291.005 265.198C293.905 268.098 297.704 273.098 299.504 276.398C301.204 279.698 303.404 285.297 304.204 288.897C305.104 292.497 305.804 297.297 305.804 299.697C305.804 301.997 300.404 338.795 293.805 381.394C285.505 435.292 281.205 460.191 279.905 463.191C278.805 465.491 276.005 469.19 273.605 471.49C271.205 473.69 266.806 476.49 263.506 477.69C260.406 478.89 256.906 479.89 255.806 479.89C254.706 479.89 251.206 478.89 248.006 477.69C244.906 476.49 240.607 473.89 238.407 471.99C236.307 469.99 233.507 466.391 232.307 463.891C230.607 460.691 229.007 452.891 226.407 436.892C224.507 424.492 219.007 389.493 214.308 359.095C209.608 328.796 205.808 301.997 205.808 299.597C205.808 297.297 206.508 292.597 207.308 289.197C208.108 285.697 209.808 280.998 210.908 278.698C212.108 276.298 214.708 272.198 216.708 269.598C218.707 266.898 223.007 262.698 226.307 260.298C229.607 257.799 234.807 254.899 237.807 253.699C240.807 252.599 245.306 251.299 247.806 250.899C250.306 250.399 255.406 250.299 259.306 250.599ZM44.8141 82.0053C50.6139 81.9053 55.0137 82.5053 58.8136 83.7052C61.8135 84.7052 66.8133 87.2051 69.8132 89.105C72.813 91.105 76.9129 94.7048 79.0128 97.0047C81.0127 99.4046 83.9126 104.104 85.4126 107.404C86.9125 110.704 88.6124 116.304 89.2124 119.904C89.9124 124.704 89.9124 128.204 89.0124 133.403C88.3124 137.203 86.5125 142.803 85.0126 145.803C83.5126 148.803 80.0128 153.703 77.3129 156.702C73.9797 160.302 69.9798 163.236 65.3133 165.502C61.4135 167.402 55.4137 169.402 51.8138 170.002C47.314 170.702 43.3142 170.702 38.8143 170.002C35.2145 169.402 29.4147 167.502 25.8148 165.802C21.715 163.902 17.2152 160.602 13.8153 157.002C10.8154 153.903 7.11556 148.903 5.61562 145.903C4.11568 142.903 2.31575 137.203 1.61578 133.403C0.715811 127.904 0.715811 124.904 1.61578 119.404C2.21575 115.504 4.11568 109.704 5.61562 106.404C7.21556 103.104 10.5154 98.3047 12.9153 95.8048C15.3153 93.3049 19.3151 90.005 21.815 88.4051C24.3149 86.9051 28.5147 84.8052 31.3146 83.8052C34.5145 82.7053 39.4143 82.0053 44.8141 82.0053ZM465.798 82.0053C471.598 81.9053 475.998 82.5053 479.797 83.7052C482.797 84.7052 487.797 87.2051 490.797 89.105C493.797 91.105 497.897 94.7048 499.997 97.0047C501.997 99.4046 504.896 104.104 506.396 107.404C507.896 110.704 509.596 116.304 510.196 119.904C510.896 124.704 510.896 128.204 509.996 133.403C509.296 137.203 507.496 142.803 505.996 145.803C504.496 148.803 500.997 153.703 498.297 156.702C494.963 160.302 490.964 163.236 486.297 165.502C482.397 167.402 476.398 169.402 472.798 170.002C468.298 170.702 464.298 170.702 459.798 170.002C456.198 169.402 450.398 167.502 446.799 165.802C442.699 163.902 438.199 160.602 434.799 157.002C431.799 153.903 428.099 148.903 426.599 145.903C425.099 142.903 423.3 137.203 422.6 133.403C421.7 127.904 421.7 124.904 422.6 119.404C423.2 115.504 425.099 109.704 426.599 106.404C428.199 103.104 431.499 98.3047 433.899 95.8048C436.299 93.3049 440.299 90.005 442.799 88.4051C445.299 86.9051 449.499 84.8052 452.298 83.8052C455.498 82.7053 460.398 82.0053 465.798 82.0053ZM254.306 92.0049C256.506 91.9049 260.806 92.3049 263.806 92.9049C266.806 93.5049 272.005 95.2048 275.305 96.8047C278.605 98.4047 283.705 102.005 286.505 104.804C289.405 107.604 293.005 112.304 294.405 115.104C295.904 118.004 297.504 121.604 297.904 123.104C298.504 124.904 298.404 125.904 297.804 125.904C297.204 125.904 295.104 124.904 293.005 123.604C291.005 122.304 287.005 120.304 284.305 119.204C281.505 118.004 276.405 116.304 272.805 115.404C268.706 114.304 262.506 113.704 255.806 113.704C249.106 113.704 242.907 114.304 238.807 115.404C235.207 116.304 230.007 118.004 227.307 119.204C224.507 120.304 220.707 122.304 218.807 123.604C216.908 124.904 214.708 125.904 214.008 125.904C213.208 125.904 213.008 125.104 213.608 123.104C214.108 121.604 215.808 118.004 217.407 115.004C219.007 112.104 222.407 107.604 224.907 105.004C227.407 102.505 231.707 99.2047 234.407 97.7047C237.107 96.2048 241.807 94.3048 244.806 93.5049C247.806 92.7049 252.106 92.0049 254.306 92.0049ZM158.31 100.005C159.91 99.9046 163.11 100.405 165.309 101.005C167.809 101.705 171.109 103.904 173.909 106.804C176.809 109.604 179.009 112.904 179.709 115.404C180.309 117.604 180.809 121.004 180.809 122.904C180.809 124.804 179.709 128.604 178.409 131.403C176.909 134.303 168.809 144.403 158.61 155.902C145.91 170.202 140.11 176.002 136.811 177.702C133.711 179.202 130.611 179.902 126.811 179.902C123.144 179.902 119.845 179.135 116.911 177.602C114.411 176.402 111.312 174.002 109.912 172.302C108.512 170.502 106.712 167.402 106.112 165.302C105.412 163.102 104.812 159.602 104.812 157.402C104.812 155.202 105.812 151.403 107.012 148.903C108.312 146.403 117.211 135.403 126.911 124.404C139.91 109.704 145.61 104.004 148.41 102.705C150.61 101.805 153.01 100.805 153.81 100.505C154.61 100.305 156.61 100.005 158.31 100.005ZM354.302 100.305C357.002 100.505 361.002 101.505 363.202 102.505C365.802 103.804 372.501 110.604 384.701 124.404C394.401 135.403 403.3 146.403 404.6 148.903C405.8 151.403 406.8 155.202 406.8 157.402C406.8 159.602 406.2 163.102 405.5 165.302C404.9 167.402 403.1 170.502 401.7 172.302C400.3 174.002 397.201 176.402 394.701 177.602C391.767 179.135 388.468 179.902 384.801 179.902C381.001 179.902 377.901 179.202 374.801 177.702C371.502 176.002 365.702 170.202 353.002 155.902C342.803 144.403 334.703 134.303 333.203 131.403C331.903 128.604 330.803 124.804 330.803 122.904C330.803 121.004 331.303 117.604 331.903 115.404C332.603 113.204 334.903 109.504 337.203 107.104C339.503 104.704 343.103 102.205 345.303 101.305C347.702 100.505 351.302 100.005 354.302 100.305ZM255.306 139.903C260.506 139.903 265.606 140.503 269.805 141.803C273.405 142.903 279.205 145.703 282.705 148.103C286.305 150.503 290.905 154.403 292.905 156.902C295.004 159.402 297.904 163.602 299.204 166.402C300.604 169.102 302.404 174.102 303.304 177.402C304.104 180.702 304.804 185.901 304.804 188.901C304.804 191.901 304.104 197.101 303.204 200.401C302.304 203.701 300.604 208.4 299.304 210.9C298.104 213.4 294.604 218 291.705 221.3C288.705 224.5 283.805 228.6 280.805 230.4C277.805 232.2 272.805 234.499 269.805 235.499C266.206 236.599 261.306 237.299 255.806 237.299C250.306 237.299 245.406 236.599 241.807 235.499C238.807 234.499 233.807 232.2 230.807 230.4C227.807 228.6 222.907 224.5 219.907 221.3C217.008 218 213.508 213.4 212.308 210.9C211.008 208.4 209.308 203.701 208.408 200.401C207.508 197.101 206.808 191.901 206.808 188.901C206.808 185.901 207.508 180.702 208.308 177.402C209.208 174.102 211.008 169.102 212.408 166.402C213.708 163.602 216.608 159.402 218.707 156.902C220.807 154.403 225.107 150.603 228.307 148.403C231.507 146.203 237.107 143.403 240.707 142.203C245.306 140.603 249.806 139.903 255.306 139.903ZM126.011 310.997C126.511 310.897 128.911 311.297 131.611 311.896C134.711 312.496 137.811 314.196 140.81 316.696C143.31 318.896 152.31 328.596 160.81 338.295C169.309 347.995 177.209 357.595 178.209 359.695C179.309 361.695 180.409 365.194 180.609 367.394C180.809 369.594 180.509 373.294 179.909 375.594C179.209 378.194 177.109 381.694 174.609 384.394C171.809 387.294 168.709 389.493 165.809 390.493C163.31 391.293 160.21 391.893 158.81 391.893C157.41 391.893 154.31 391.193 151.81 390.293C149.31 389.493 146.21 387.794 144.81 386.694C143.41 385.594 134.711 376.094 125.511 365.494C116.211 354.995 108.012 345.195 107.212 343.595C106.412 342.095 105.512 338.995 105.212 336.596C104.812 334.296 105.012 330.396 105.712 327.896C106.312 325.396 108.312 321.596 110.112 319.496C111.912 317.396 114.611 314.896 116.311 314.096C117.911 313.296 120.611 312.196 122.311 311.796C123.911 311.396 125.611 311.096 126.111 310.997H126.011ZM387.201 311.596C389.401 311.896 392.801 312.896 394.701 313.896C396.601 314.796 399.7 317.396 401.5 319.496C403.3 321.596 405.2 325.196 405.8 327.396C406.4 329.596 406.7 333.396 406.4 335.896C406.1 338.395 405.2 341.695 404.4 343.395C403.6 344.995 395.301 354.995 386.001 365.494C376.801 376.094 368.102 385.594 366.702 386.694C365.302 387.794 362.202 389.493 359.702 390.293C357.202 391.193 354.102 391.893 352.702 391.893C351.302 391.893 348.402 391.293 346.203 390.693C343.903 389.993 340.303 387.594 337.703 384.894C334.403 381.694 332.703 378.994 331.803 375.394C331.003 372.594 330.603 368.794 330.903 366.894C331.203 364.994 332.103 361.795 333.103 359.895C334.003 357.995 342.503 347.595 352.002 336.896C361.502 326.196 370.602 316.396 372.202 315.196C373.901 313.996 377.001 312.596 379.201 311.996C381.401 311.496 385.001 311.297 387.201 311.596Z" fill="white"/>
</svg>
