<svg width="651" height="480" viewBox="0 0 651 480" fill="none" xmlns="http://www.w3.org/2000/svg">
<path fill-rule="evenodd" clip-rule="evenodd" d="M227.061 0.0112966C233.433 -0.124262 240.753 0.960209 249.428 3.26471C256.478 5.16254 265.696 8.68707 269.762 10.9916C273.829 13.2961 280.336 17.634 283.996 20.6163C287.792 23.5986 293.35 29.292 296.603 32.9521C299.856 36.7478 304.872 44.7458 307.854 50.7103C310.837 56.6749 314.09 66.1641 315.31 71.722C316.801 78.771 317.208 85.6846 316.801 94.0892C316.395 101.545 314.768 110.492 312.599 117.134C310.566 123.641 306.499 132.046 302.568 138.146C298.907 143.704 292.943 150.888 289.554 154.142C286.165 157.26 279.523 162.275 274.778 165.258C270.169 168.376 261.493 172.442 255.529 174.34C246.311 177.458 242.244 178 228.417 178C216.488 178 209.981 177.458 204.016 175.56C199.543 174.205 191.545 170.951 186.394 168.24C179.751 164.851 173.515 159.971 165.382 151.837C156.706 143.026 152.504 137.604 148.844 130.012C145.997 124.454 142.879 115.508 141.659 110.356C140.439 105.069 139.49 95.3092 139.49 88.6669C139.49 81.8889 140.439 72.8065 141.659 68.333C142.744 63.8596 146.268 55.0482 149.386 48.677C153.724 39.8656 157.384 34.7144 165.246 26.852C173.109 19.1251 178.26 15.1939 187.071 10.856C193.443 7.73816 202.796 4.07807 208.083 2.72248C213.234 1.36689 221.774 0.146856 227.061 0.0112966ZM208.354 25.3608C204.423 26.4453 198.187 29.0209 194.527 31.0543C190.731 33.2232 184.496 38.1034 180.565 42.1701C176.498 46.1013 171.753 52.0659 169.855 55.4549C167.822 58.8439 165.111 64.944 163.755 69.0108C162.4 73.0776 160.908 80.3978 160.502 85.2779C159.824 91.5136 160.366 96.936 161.993 103.578C163.349 108.73 166.195 116.592 168.229 120.93C170.398 125.132 175.684 132.181 179.887 136.519C184.225 140.857 190.731 146.144 194.527 148.313C198.187 150.346 205.236 153.328 210.116 154.684C214.996 156.04 223.13 157.124 228.417 157.124C233.568 157.124 241.295 156.175 245.362 154.955C249.428 153.735 256.478 150.888 260.815 148.584C265.289 146.144 271.931 141.128 275.727 137.333C279.523 133.537 284.538 126.894 286.978 122.421C289.283 118.083 292.13 111.034 293.35 106.967C294.57 102.901 295.519 94.9026 295.519 89.3447C295.519 83.3801 294.434 75.5176 292.807 70.3664C291.452 65.4863 287.656 57.6239 284.403 52.8793C281.149 47.9992 275.862 41.7635 272.473 38.7812C269.085 35.9344 262.849 31.7321 258.511 29.5631C254.309 27.3942 246.988 24.683 242.244 23.5986C237.635 22.5141 231.128 21.7007 227.739 21.8363C224.35 21.8363 220.283 22.243 218.521 22.6496C216.894 23.0563 212.285 24.2764 208.354 25.3608ZM195.883 194.267C209.303 194.674 237.635 196.165 258.918 197.656C280.2 199.147 317.344 201.452 341.609 202.672C369.534 204.163 407.897 204.976 446.667 204.976C484.352 204.976 513.362 204.434 522.58 203.35C530.713 202.536 543.32 201.452 550.369 200.91C562.163 200.096 563.79 200.367 570.703 203.485C574.77 205.248 580.192 208.908 582.768 211.483C585.344 214.059 588.461 218.532 589.817 221.515C591.173 224.497 592.528 229.106 593.07 231.682C593.613 234.257 593.342 239.815 592.528 243.882C591.715 247.949 589.275 254.184 586.97 257.844C584.801 261.369 580.328 265.842 577.074 267.876C573.957 269.774 564.332 274.383 555.792 278.178C547.251 281.838 532.204 287.532 522.58 290.785C512.82 294.174 498.179 298.648 490.046 300.817C481.777 302.986 469.034 306.103 461.578 307.595C454.122 309.086 439.482 311.661 429.044 313.288C414.404 315.457 401.526 316.135 336.186 317.084L335.508 320.202C335.237 321.828 331.848 354.227 328.053 392.319C324.257 430.275 320.868 464.165 320.326 467.554C319.784 471.214 318.292 474.874 313.277 479.754H214.183C122.139 479.754 114.954 479.619 111.836 477.45C109.938 476.094 108.176 474.332 107.905 473.654C107.634 472.841 106.007 460.37 104.516 445.865C102.889 431.36 101.263 417.94 100.856 416.042C100.314 413.466 99.9069 413.059 99.0936 414.686C98.4158 415.771 95.0268 429.462 91.3667 445.187C86.3511 467.147 84.1821 474.332 81.7421 476.772C78.7598 479.754 78.2175 479.754 6.77795 479.754L3.38897 475.688C1.49115 473.383 0 470.943 0 470.265C0 469.452 9.08245 431.495 20.1983 385.948C31.3141 340.264 42.2944 297.97 44.5989 292.005C46.9034 286.041 51.7835 276.009 55.5792 269.638C59.3748 263.267 66.5594 253.507 71.5751 247.678C76.5908 241.984 84.0465 234.528 88.1133 231.004C92.1801 227.615 99.7714 221.921 105.058 218.532C110.209 215.008 118.75 210.263 124.036 207.959C129.188 205.519 136.915 202.536 140.981 201.181C145.048 199.825 153.588 197.656 159.96 196.301C169.584 194.132 175.549 193.861 195.883 194.267ZM157.248 218.668C153.182 219.752 144.913 222.464 138.948 224.768C132.983 227.073 122.545 232.495 115.903 236.968C109.125 241.306 99.0936 249.711 93.4001 255.54C87.7066 261.505 79.9798 271.129 76.0486 277.094C72.2529 283.058 67.3728 292.548 65.0683 298.105C62.8994 303.663 53.0036 340.942 43.3789 380.796C33.6186 420.651 25.3495 454.405 25.0784 455.76C24.4006 457.929 26.0273 458.065 45.4122 458.065H66.4239C68.4573 450.203 74.5574 423.769 81.3354 394.352C91.0956 352.058 94.349 340.129 96.6535 337.689C98.5514 335.791 101.127 334.706 103.974 334.706C106.414 334.706 109.532 335.791 110.887 337.146C112.243 338.366 113.87 341.891 114.276 344.873C114.818 347.856 117.665 372.527 120.647 399.775C123.63 427.022 126.341 451.287 126.748 453.727L127.425 458.065H299.585C300.534 453.32 304.194 418.075 308.397 376.73C315.175 309.357 316.259 301.223 318.699 298.783C321.275 296.208 323.308 296.072 360.316 295.937C387.156 295.801 404.508 295.123 416.166 293.632C425.52 292.412 441.38 289.836 451.411 287.939C461.443 285.905 478.523 281.838 489.368 278.856C500.213 276.009 514.853 271.4 521.902 268.689C528.951 265.978 541.151 261.098 549.014 257.844C559.181 253.642 564.603 250.524 567.856 246.864C572.059 242.255 572.465 241.306 571.652 235.748C571.11 232.359 569.754 228.564 568.399 227.073C567.043 225.717 563.925 223.684 561.485 222.735C557.825 221.108 554.572 221.108 539.796 223.006C530.307 224.09 505.228 225.581 483.945 226.124C462.663 226.666 426.062 226.666 402.61 226.124C379.158 225.446 347.438 224.361 332.119 223.548C316.801 222.735 281.691 220.566 254.173 218.803C226.519 217.041 200.085 215.279 195.205 215.008C190.325 214.737 181.513 215.008 175.549 215.686C169.584 216.228 161.315 217.583 157.248 218.668ZM588.732 281.838C589.953 281.838 592.528 283.194 594.426 284.956C597.273 287.396 602.153 302.579 624.249 377.136C638.754 426.073 650.683 467.69 650.683 469.588C650.683 471.485 649.056 474.468 643.227 479.89H600.526C558.638 479.89 557.825 479.754 555.114 476.908C553.623 475.281 548.743 466.063 544.269 456.303C539.796 446.678 535.322 438.409 534.373 438.138C533.153 437.867 532.747 441.934 532.747 455.354C532.747 472.299 532.611 473.112 526.104 479.754L349.064 479.89L345.269 476.094C343.235 474.061 341.473 471.35 341.609 470.265C341.609 469.181 344.726 439.493 348.387 404.519C354.758 345.416 355.436 340.535 358.282 337.689C360.993 334.842 363.027 334.571 383.632 333.351C395.968 332.537 413.861 331.046 423.622 329.826C433.246 328.606 450.734 325.895 462.256 323.726C473.779 321.693 490.317 318.033 498.857 315.864C507.397 313.695 521.766 309.221 530.713 306.103C539.66 302.986 555.792 296.343 566.636 291.192C577.481 286.041 587.377 281.838 588.597 281.838H588.732ZM538.982 325.895C530.036 329.013 515.666 333.486 507.126 335.791C498.586 338.095 485.708 341.078 478.659 342.704C471.61 344.195 459.952 346.364 452.902 347.449C445.853 348.533 432.026 350.431 422.402 351.516C412.641 352.6 398.272 353.82 390.139 354.227C376.447 355.04 375.634 355.176 374.956 358.158C374.685 359.785 372.245 381.881 369.534 407.23C366.958 432.58 364.789 454.405 364.789 455.76C364.789 457.929 369.263 458.065 438.669 458.065H512.548C512.548 381.203 512.684 379.305 515.26 376.73C516.886 375.103 519.869 374.018 522.309 374.018C525.291 374.018 527.867 375.103 529.764 377.001C531.391 378.763 540.745 397.606 550.776 419.16L568.805 458.065H626.418C617.064 427.022 607.033 393.674 598.086 363.852C589.275 334.029 581.548 309.492 580.87 309.357C580.192 309.221 574.092 311.526 567.45 314.508C560.672 317.626 547.929 322.642 538.982 325.895ZM444.091 29.8343C448.565 29.6987 457.105 30.9187 463.069 32.4099C469.034 34.0366 477.574 37.1544 482.048 39.5945C486.521 41.899 494.519 48.1347 499.67 53.4215C505.77 59.3861 511.057 66.4352 514.175 72.3998C516.886 77.551 520.14 86.0912 521.36 91.378C522.986 98.156 523.529 104.392 522.986 113.067C522.58 119.71 521.089 129.199 519.462 134.079C517.971 138.959 514.446 146.551 511.464 151.024C508.617 155.497 503.195 162.275 499.399 165.935C495.604 169.731 489.232 174.747 485.165 177.051C481.234 179.491 474.321 182.88 469.847 184.507C463.069 186.947 458.867 187.489 444.769 187.625C430.671 187.625 426.333 187.083 419.013 184.643C414.133 183.016 406.541 179.22 402.068 176.374C397.594 173.391 390.952 168.104 387.427 164.444C383.767 160.784 378.887 154.413 376.312 150.346C373.872 146.279 370.483 138.959 368.856 134.079C367.229 129.199 365.602 120.659 365.196 115.101C364.789 109.543 365.196 100.596 366.009 95.4448C366.958 89.8869 369.94 81.0756 373.194 74.4332C377.396 65.4863 380.921 60.7417 388.376 53.286C395.019 46.7791 401.119 42.3057 408.168 38.7812C413.726 35.9344 422.266 32.8166 427.146 31.8677C432.026 30.7832 439.618 29.8343 444.091 29.8343ZM411.557 61.5551C407.219 64.5374 401.119 70.3664 398.001 74.4332C395.019 78.4999 391.088 86.0912 389.325 91.378C386.614 99.2405 386.207 102.901 386.75 112.39C387.156 121.743 388.105 125.539 391.63 133.13C394.07 138.146 398.814 145.331 402.339 149.126C406.406 153.464 412.37 157.802 418.335 160.649C423.622 163.36 431.484 165.935 435.958 166.478C440.431 167.156 447.48 167.156 451.547 166.613C455.614 165.935 461.172 164.715 463.747 163.767C466.323 162.818 471.474 160.106 475.27 157.802C478.93 155.497 484.488 150.753 487.334 147.499C490.317 144.246 494.655 137.604 496.824 132.724C500.213 125.539 501.026 121.743 501.433 112.39C501.704 105.883 501.161 98.2915 500.213 94.767C499.264 91.378 497.366 86.2268 495.875 83.2445C494.383 80.2622 491.266 75.5176 488.961 72.5353C486.657 69.6886 481.37 64.944 477.303 61.9617C473.236 59.115 465.916 55.4549 461.036 53.9638C455.885 52.4726 448.565 51.3881 443.413 51.3881C438.533 51.5237 431.213 52.6082 427.146 53.9638C423.079 55.1838 416.03 58.7083 411.557 61.5551Z" fill="white"/>
</svg>
