<svg width="429" height="480" viewBox="0 0 429 480" fill="none" xmlns="http://www.w3.org/2000/svg">
<path fill-rule="evenodd" clip-rule="evenodd" d="M83.9148 1.34614C79.7038 3.18013 76.4998 7.52912 76.4998 11.4121C76.4998 14.5261 77.3088 15.9431 84.2498 24.9891L87.4998 29.2251L87.5058 44.825C87.5088 53.405 87.9908 62.151 88.5758 64.261C89.2608 66.725 92.1208 70.771 96.5708 75.571C101.502 80.889 103.5 83.8039 103.5 85.6809C103.5 89.1469 99.5448 94.7309 93.4508 99.8699C86.7398 105.528 83.2578 110.908 77.5138 124.491C71.7468 138.128 67.6858 144.783 62.9049 148.429C57.5049 152.548 54.3749 153.04 43.3629 151.501C27.9429 149.346 22.8289 151.544 19.91 161.585C18.099 167.816 18.503 168.894 25.5519 176.646C32.0399 183.781 40.7009 201.307 41.2989 208.51L41.7479 213.925H37.9339C35.8369 213.925 31.4599 213.376 28.2089 212.704C22.3609 211.496 22.229 211.52 15.747 214.954C12.144 216.863 7.12698 220.319 4.59799 222.634L0 226.843L6.24999 232.698C9.68798 235.919 12.5 238.862 12.5 239.239C12.5 239.616 11.301 242.072 9.83498 244.698C6.08598 251.413 6.92299 253.764 15.275 259.966C25.1829 267.324 36.7749 272.925 42.0959 272.925C46.0319 272.925 47.1159 272.331 53.1369 266.874C58.1619 262.32 60.4329 260.897 62.3129 261.124C67.0418 261.694 67.5788 265.94 67.2798 300.396C66.9728 335.715 67.0229 336.012 76.0348 352.924C86.2538 372.099 87.5428 375.379 90.4278 389.549C93.7988 406.102 94.9808 409.13 101.505 417.93C108.34 427.15 109.923 431.219 112.98 447.424C117.357 470.627 123.34 480 133.7 479.889C138.684 479.835 141.467 477.809 147.5 469.844C151.502 464.561 155.715 460.629 162.967 455.409C178.883 443.951 179.736 442.385 178.014 427.781C177.29 421.64 177.513 420.32 180.962 410.334C185.129 398.266 185.13 397.578 180.979 383.255C179.616 378.55 178.5 373.619 178.5 372.297C178.5 367.947 184.527 362.934 198.08 356.01L210.971 349.424L236.995 320.176C252.602 302.636 265.018 289.573 268.01 287.543C275.27 282.617 277.622 279.664 278.609 274.235C279.764 267.878 282.957 265.088 293.962 260.821C313.411 253.279 315.711 246.361 306.82 222.133C300.985 206.232 299.515 200.728 299.507 194.752C299.5 190.101 299.965 188.524 302.088 186.002C306.276 181.024 309.366 181.715 316.841 189.302C323.884 196.45 327.854 197.925 340.048 197.925C343.596 197.925 346.499 198.328 346.499 198.82C346.499 199.313 345.149 202.888 343.499 206.765C340.141 214.656 339.591 221.816 341.914 227.377C343.952 232.253 346.367 233.236 353.204 231.972C362.053 230.336 362.025 230.324 365.278 237.175C368.893 244.788 374.025 251.925 375.883 251.925C376.637 251.925 377.821 251.242 378.513 250.408C380.748 247.715 379.876 241.744 376.11 233.953C369.882 221.067 371.671 215.135 382.425 213.019C389.34 211.659 391.297 209.754 394.458 201.304C397.004 194.501 397.01 192.282 394.499 186.425C391.539 179.521 391.912 176.939 396.829 170.285C403.657 161.043 414.161 152.464 421.628 150.032C429.045 147.616 430.145 143.108 424.977 136.315C416.641 125.359 389.466 117.912 377.999 123.442C373.05 125.828 361.868 137.122 356.509 145.148C353.389 149.82 352.499 152.103 352.499 155.432C352.499 158.169 351.996 159.904 351.105 160.246C348.365 161.298 323.808 164.062 320.013 163.747C316.236 163.433 316.076 163.258 313.314 156.425C309.788 147.701 306.853 144.92 301.193 144.94C298.886 144.948 295.874 145.529 294.499 146.231C292.045 147.484 291.999 147.725 291.999 159.34C291.999 171.155 291.995 171.176 289.176 173.299C287.006 174.933 284.922 175.425 280.176 175.425C274.595 175.425 272.605 174.758 259.55 168.509L245.102 161.593L230.322 161.781C212.32 162.011 211.213 161.63 200.649 151.567C196.172 147.302 190.213 142.799 186.698 141.025C179.722 137.504 179.745 137.751 185.581 128.696C192.793 117.505 191.959 115.351 177.148 106.925C155.798 94.7779 153.91 90.3509 166.023 80.832C169.757 77.898 172.774 74.682 173.133 73.253C173.529 71.674 172.799 68.334 171.128 64.073C167.147 53.926 167.581 51.385 175.079 40.9481C182.46 30.6741 182.928 25.2641 176.895 19.9671C172.188 15.8341 168.64 16.0241 159 20.9251C148.373 26.3271 145.749 26.2261 136.279 20.0431C132.166 17.3581 125.289 12.5651 120.997 9.39112C116.193 5.83813 110.913 2.91014 107.258 1.77314C100.28 -0.398857 88.4218 -0.615857 83.9148 1.34614Z" fill="white"/>
</svg>
