<svg width="222" height="480" viewBox="0 0 222 480" fill="none" xmlns="http://www.w3.org/2000/svg">
<path fill-rule="evenodd" clip-rule="evenodd" d="M89.7152 0.812498C89.1969 1.32857 88.7709 30.0733 88.7709 64.6886V127.625L100.602 126.406C111.778 125.256 111.622 125.356 97.7853 128.204C89.7287 129.863 75.6189 132.463 66.431 133.982C41.1884 138.158 32.8703 148.899 44.4493 162.36C48.0754 166.574 51.751 168.404 56.2808 168.253C66.298 167.915 154.425 152.133 161.256 149.453C168.183 146.736 173.249 136.457 171.061 129.561C170.234 126.958 167.097 123.215 164.086 121.243C159.072 117.957 156.821 117.982 137.072 121.536C125.225 123.67 114.917 124.803 114.169 124.055C113.421 123.307 115.023 122.694 117.727 122.694H122.647L122.048 61.4209L121.448 0.147685L106.054 0.0102181C97.587 -0.0664044 90.2358 0.296423 89.7152 0.812498ZM34.867 54.0922C21.5347 57.7498 10.8098 63.6226 4.26987 70.8522C0.125492 75.4293 0.208881 75.6456 10.0504 86.0956C15.5424 91.9234 20.1713 97.0165 20.3358 97.4109C20.5003 97.8053 24.4058 95.5697 29.0122 92.4417C45.61 81.1782 63.4382 82.0842 77.6381 94.9139L86.5173 102.937V81.5095V60.0822L78.0663 56.7244C64.5357 51.3495 48.4382 50.3692 34.867 54.0922ZM103.419 164.37C74.9113 169.56 49.9053 174.549 47.85 175.455C41.9636 178.052 38.5855 188.414 41.2988 195.549C45.7069 207.143 49.583 207.233 106.953 197.104C135.997 191.974 162.024 186.304 164.794 184.504C175.323 177.659 172.285 160.992 159.69 156.512C157.229 155.635 132.166 159.135 103.419 164.37ZM97.7853 201.802C54.417 209.699 48.8011 211.227 44.2623 216.363C41.4746 219.52 39.1917 224.122 39.1917 226.587C39.1917 232.368 48.9453 242.135 54.719 242.135C57.1754 242.135 82.3211 238.09 110.599 233.145C157.289 224.981 162.48 223.624 167.084 218.371C173.635 210.898 173.5 204.964 166.622 198.088C159.448 190.913 156.825 191.055 97.7853 201.802ZM128.77 231.874C120.4 233.389 113.076 235.106 112.492 235.692C111.909 236.276 127.044 258.767 146.127 285.672C185.446 341.104 188.835 348.392 187.54 374.687C186.025 405.393 169.955 429.896 143.191 442.307C132.669 447.186 127.141 448.22 111.307 448.274C94.8354 448.331 90.1637 447.422 77.9739 441.793C60.1682 433.572 43.6268 416.118 37.0981 398.668C31.1959 382.895 30.9615 358.263 36.5617 342.42C38.7522 336.223 53.9753 310.491 70.3906 285.24C86.8058 259.988 99.7843 238.876 99.2322 238.324C98.68 237.772 89.0526 239.007 77.8365 241.069L57.4459 244.815L34.511 280.717C3.09574 329.897 -0.0818329 338.071 0.0015504 369.464C0.0556368 389.841 0.984127 396.595 5.21865 407.414C17.0636 437.676 41.7383 463.24 70.012 474.549C81.289 479.061 87.1258 479.807 111.476 479.845L139.817 479.89L159.104 470.332C214.441 442.913 237.416 376.481 210.186 322.634C204.825 312.03 146.882 228.582 145.111 228.911C144.491 229.026 137.138 230.358 128.77 231.874Z" fill="white"/>
</svg>
