<svg width="162" height="480" viewBox="0 0 162 480" fill="none" xmlns="http://www.w3.org/2000/svg">
<path fill-rule="evenodd" clip-rule="evenodd" d="M85.9037 3.63145C88.9154 9.45622 87.7199 19.2838 82.7599 29.4862C79.0517 37.1126 66.1886 56.0566 63.493 57.8628C62.9015 58.259 62.8145 59.2264 63.2999 60.0132C63.8316 60.8711 63.7278 61.1601 63.0414 60.7368C61.3843 59.7129 27.2586 102.739 18.4413 116.971C3.13435 141.673 -2.56851 162.415 1.05278 180.212C4.56457 197.468 16.0324 214.767 28.2283 221.205L33.921 224.21H81.3319C128.393 224.21 128.785 224.19 134.387 221.617C141.819 218.203 153.026 206.227 157.759 196.64C160.866 190.35 161.418 188.009 161.377 181.314C161.308 170.161 158.767 165.974 141.16 148.014C132.887 139.573 125.077 130.518 123.657 127.716C120.975 122.425 120.185 115.394 121.778 111C122.646 108.606 122.479 108.473 119.52 109.183C114.621 110.359 110.412 112.759 105.559 117.143C99.549 122.573 96.5237 127.788 93.6948 137.598L91.3051 145.883L87.2402 141.384C80.7167 134.164 79.1476 124.664 82.5431 112.943C84.6698 105.602 89.1829 93.9673 92.0942 88.3209C97.0915 78.6265 105.404 57.6223 107.262 49.9926C112.345 29.1182 105.886 13.6656 87.1939 1.9811L84.0253 0L85.9037 3.63145ZM14.6417 240.966C13.6686 243.505 16.3157 256.215 19.4979 264.283C25.7561 280.148 37.4915 292.849 52.6551 300.173L61.2805 304.338L61.9995 315.636C62.3957 321.849 63.4794 341.411 64.4084 359.105C65.3375 376.799 66.604 400.294 67.2238 411.314C71.0358 479.121 70.4917 474.28 74.6944 477.725C76.5265 479.227 76.5377 479.153 74.875 476.504C73.0124 473.537 72.8318 471.003 70.6373 417.24C70.0289 402.339 69.276 384.052 68.9633 376.602C68.6506 369.152 68.1212 355.436 67.7871 346.123C67.4518 336.811 66.8964 324.747 66.551 319.314L65.9234 309.436H68.7093H71.4964L72.2143 327.78C72.6083 337.869 73.6773 374.455 74.5883 409.083C76.4429 479.598 76.479 479.89 83.3785 479.89C88.6354 479.89 92.89 475.529 93.6655 469.349C93.9883 466.765 94.7988 453.729 95.4649 440.381C96.132 427.033 97.6627 397.316 98.8672 374.344C100.072 351.373 101.391 326.196 101.799 318.397L102.542 304.218L111.126 300.367C122.229 295.387 136.245 282.008 141.662 271.219C145.592 263.391 149.626 249.201 149.626 243.208V239.425L100.24 239.719L50.8534 240.013L51.0431 250.839C51.2564 262.935 52.1629 267.336 57.3002 281.216C61.3425 292.134 65.4063 298.403 71.4795 303.088L75.6877 306.336L71.8486 305.622C52.2746 301.987 34.5159 276.31 32.3282 248.48L31.6633 240.013L23.4635 239.681C17.1601 239.426 15.1192 239.723 14.6417 240.966Z" fill="white"/>
</svg>
