<svg width="594" height="480" viewBox="0 0 594 480" fill="none" xmlns="http://www.w3.org/2000/svg">
<path fill-rule="evenodd" clip-rule="evenodd" d="M367.584 0C369.207 0 371.874 1.15957 373.729 2.89893C376.049 5.10211 376.86 6.95742 376.86 10.2042C376.86 13.2191 376.165 15.1904 374.309 16.9297C372.802 18.2053 369.903 20.0606 367.7 20.9882C365.497 21.9159 362.018 24.5829 359.815 27.018C357.727 29.3371 355.524 33.2797 354.828 35.7148C354.249 38.0339 353.669 41.2807 353.669 42.9041C353.669 44.5275 357.148 58.6743 369.323 102.97L379.759 105.521C385.441 106.912 390.311 107.84 390.427 107.608C390.543 107.376 392.978 90.7943 395.877 70.7338C398.776 50.6732 401.907 31.8882 402.951 28.9893C403.994 26.0903 406.313 21.684 408.053 19.1329C409.908 16.5819 413.039 12.9872 415.242 11.1319C417.445 9.27656 421.04 6.95742 423.243 5.79785C425.446 4.63828 429.621 2.89893 432.52 1.85531C435.419 0.811699 440.637 0 444.115 0C448.367 0.0773047 451.305 0.773047 452.928 2.08723C454.32 3.13084 456.059 5.56594 456.755 7.53721C457.798 10.2042 457.798 11.7117 456.639 14.3787C455.827 16.234 453.856 18.3212 452.232 19.1329C450.609 19.9446 446.666 20.6403 443.536 20.6403C439.825 20.7563 435.882 21.7999 432.52 23.5393C429.273 25.2786 426.142 28.1776 424.055 31.4244C421.156 36.0626 420.344 39.8892 415.822 71.8934C412.923 91.3741 410.488 108.768 410.256 110.623C409.908 113.87 410.372 114.218 416.865 116.769C422.315 118.856 424.055 119.088 425.098 117.928C425.794 117.233 436.23 100.651 448.29 81.1699C460.349 61.6891 472.293 43.8318 474.844 41.2807C477.395 38.8456 482.845 35.135 487.02 33.2797C492.122 30.8446 496.992 29.569 502.094 29.2212C506.964 28.8733 512.066 29.3371 516.589 30.6127C520.415 31.6563 526.561 34.5552 530.271 37.1062C535.837 41.0488 536.997 42.4403 537.577 46.1509C538.041 49.2817 537.693 51.137 536.069 53.2243C534.91 54.7317 532.591 56.4711 530.851 56.9349C528.648 57.6306 526.561 57.5147 524.474 56.3551C522.618 55.4275 518.676 53.3402 515.429 51.7168C512.182 49.9775 507.776 48.702 505.225 48.702C502.906 48.702 498.963 49.5136 496.644 50.5573C494.209 51.4849 490.73 53.6881 488.991 55.4275C487.135 57.1668 476.351 73.4008 465.104 91.606C453.74 109.811 444.115 125.35 443.768 126.161C443.188 127.089 444.927 128.596 448.754 130.452C452 132.075 455.015 133.351 455.711 133.351C456.291 133.351 473.916 123.494 494.905 111.551C516.473 99.1432 535.142 89.1709 538.388 88.3592C541.403 87.5475 546.853 86.9678 550.564 86.9678C554.159 86.9678 559.841 87.7795 562.971 88.939C566.218 89.9826 570.625 91.9539 572.828 93.3454C575.031 94.8528 578.857 97.9837 581.409 100.419C583.844 102.97 587.554 108.304 589.526 112.478C592.656 119.088 593.12 121.291 593.12 129.872C593.12 136.945 592.424 141.468 590.801 145.874C589.526 149.353 586.627 154.455 584.423 157.354C582.22 160.253 578.046 164.311 575.379 166.282C572.016 168.602 568.885 169.877 566.218 169.877C563.319 169.877 561.464 169.065 559.377 166.746C557.869 164.891 556.594 162.456 556.594 161.18C556.594 159.905 557.289 157.47 558.101 155.846C558.797 154.223 561.464 151.672 563.899 150.048C566.682 148.193 569.233 145.178 571.088 141.236C572.712 137.873 573.987 133.467 573.987 131.611C573.987 129.64 573.407 126.161 572.828 123.842C572.132 121.407 569.929 117.58 567.957 115.145C565.87 112.826 562.044 110.043 559.493 108.884C556.942 107.724 552.651 106.68 549.984 106.68C547.201 106.68 543.259 107.376 541.287 108.188C539.2 109.116 524.937 117.001 509.631 125.813C494.325 134.626 480.642 142.511 479.25 143.323C476.699 144.946 476.931 145.178 487.947 152.831C494.093 157.122 502.558 163.267 506.732 166.398C510.907 169.645 519.372 177.182 525.749 183.212C532.127 189.242 541.171 198.866 545.926 204.664C550.68 210.346 557.058 218.695 560.072 223.217C563.087 227.624 568.189 236.32 571.436 242.35C574.683 248.38 578.973 257.541 580.945 262.643C582.8 267.745 585.467 275.514 586.743 280.036C588.018 284.443 590.105 293.835 591.381 300.908C592.888 309.257 593.7 318.766 593.7 328.506C593.7 336.623 592.888 348.567 591.961 355.176C590.917 361.67 588.83 372.222 587.206 378.6C585.583 384.977 582.452 395.182 580.133 401.211C577.93 407.241 573.292 418.141 569.813 425.33C565.754 433.795 561.696 440.289 558.101 444.231C554.97 447.362 550.448 451.073 547.897 452.348C545.346 453.508 541.635 454.552 539.78 454.552C537.809 454.552 530.271 452.232 522.966 449.449C515.661 446.666 503.369 441.68 495.716 438.318C488.063 434.955 475.772 429.273 468.466 425.562C461.161 421.852 448.058 414.894 439.477 409.908C430.896 404.922 416.981 396.457 408.749 391.007C400.4 385.673 386.833 376.165 378.6 370.019C370.251 363.757 356.684 352.973 348.451 346.016C340.102 338.942 325.143 325.143 296.734 297.43L281.428 312.62C272.963 320.969 261.135 332.217 255.105 337.551C249.076 343.001 237.828 352.393 230.175 358.423C222.522 364.453 212.549 372.106 208.143 375.353C203.621 378.6 193.184 385.673 184.951 391.123C176.603 396.573 161.528 405.734 151.324 411.531C140.308 417.793 131.495 422.084 129.64 422.084C127.785 422.084 125.002 420.808 123.262 419.301C120.827 417.213 120.016 415.358 120.016 412.343C120.016 409.792 120.827 407.357 122.335 405.966C123.61 404.806 131.379 400.052 139.728 395.413C147.961 390.775 161.528 382.774 169.645 377.556C177.762 372.454 191.909 362.714 200.954 355.872C209.998 349.147 222.869 339.058 229.595 333.492C236.32 327.926 248.264 317.258 256.149 309.837C264.15 302.416 277.137 289.197 285.022 280.616C292.907 272.035 305.547 257.425 312.968 248.148C320.389 238.871 331.753 224.029 338.015 215.1C344.392 206.172 354.017 191.793 359.351 183.212C364.685 174.631 370.135 166.63 371.526 165.471C372.802 164.311 375.701 163.383 377.788 163.499C380.107 163.499 382.542 164.543 384.398 166.398C386.021 168.022 387.296 170.689 387.296 172.544C387.296 174.283 384.513 180.313 380.571 186.691C376.976 192.721 368.28 205.94 349.031 234.233L358.655 245.017C363.989 250.815 372.454 259.396 377.556 264.034C382.542 268.672 390.311 275.282 394.834 278.877C399.24 282.471 408.633 289.313 415.706 293.951C422.663 298.705 435.535 306.127 444.115 310.649C452.696 315.055 464.176 320.505 469.626 322.708C475.076 324.796 481.917 327.463 485.048 328.506C489.339 330.13 490.846 331.289 492.238 334.536C493.513 337.551 493.745 339.522 492.817 342.073C492.122 343.929 490.614 346.016 489.339 346.711C488.063 347.291 485.396 347.871 483.541 347.871C481.57 347.871 476.004 346.364 471.133 344.508C466.147 342.653 457.103 338.942 451.073 336.275C445.043 333.492 434.839 328.39 428.461 324.912C422.084 321.433 411.647 315.055 405.27 310.881C398.892 306.706 388.456 299.169 382.078 294.183C375.701 289.081 362.83 277.253 336.275 250.467L329.666 258.932C326.071 263.454 320.273 270.528 310.765 281.776L312.968 285.022C314.128 286.762 320.853 293.603 327.695 300.329C334.652 307.054 345.552 317.142 351.93 322.824C358.307 328.506 368.743 337.319 375.121 342.421C381.499 347.523 393.442 356.452 401.791 362.366C410.024 368.28 423.127 376.976 430.78 381.731C438.434 386.601 453.044 394.95 463.248 400.516C473.453 405.966 489.686 413.967 499.195 418.141C508.819 422.431 521.691 427.881 527.952 430.317C538.968 434.723 539.2 434.839 541.867 432.752C543.259 431.592 546.042 427.765 548.129 424.287C550.1 420.808 554.159 412.227 557.173 405.27C560.188 398.196 564.015 387.528 565.754 381.499C567.61 375.469 570.045 365.497 571.204 359.467C572.712 351.466 573.292 343.117 573.292 329.318C573.292 315.635 572.712 307.402 571.32 300.329C570.161 294.879 567.957 286.298 566.334 281.196C564.711 276.094 560.536 265.889 557.057 258.584C553.463 251.279 547.897 241.075 544.534 235.973C541.171 230.87 534.562 221.942 529.692 216.26C524.937 210.462 516.936 201.997 512.066 197.475C507.196 192.837 499.195 185.763 494.325 181.937C489.339 177.994 480.062 171.384 473.684 167.21C467.307 162.92 455.247 156.078 447.014 151.788C438.665 147.497 425.91 141.699 418.605 138.801C411.3 135.902 399.24 131.727 391.935 129.524C384.629 127.205 372.106 124.074 364.105 122.335C356.104 120.711 342.769 118.508 334.536 117.58C325.723 116.537 309.953 115.725 296.85 115.725C283.747 115.725 267.977 116.537 259.164 117.58C250.815 118.508 237.596 120.711 229.595 122.451C221.594 124.074 210.694 126.741 205.244 128.364C199.794 129.872 190.17 133.003 183.792 135.322C177.414 137.525 165.123 142.743 156.542 146.918C147.961 150.976 135.902 157.354 129.872 160.948C123.842 164.543 112.594 172.196 104.941 177.878C97.2879 183.676 85.2284 194.112 78.271 201.185C71.1976 208.143 62.2689 218.115 58.4423 223.217C54.4998 228.319 49.5136 235.393 47.3105 238.871C44.9913 242.35 40.585 250.467 37.3382 256.845C34.2073 263.222 30.0329 273.079 28.0616 278.877C26.0903 284.559 23.7712 293.719 22.6116 299.169C21.568 304.619 20.5244 315.055 20.0606 322.361C19.7127 330.014 20.0606 340.45 20.7563 346.711C21.568 352.741 22.9595 361.67 23.8871 366.424C24.8148 371.178 27.7137 381.383 30.2648 389.036C32.8158 396.689 37.802 408.864 41.2807 416.054C45.919 425.562 48.702 429.969 51.9487 432.52C55.5434 435.303 58.7902 436.346 71.8934 438.897C80.4742 440.521 97.4039 443.304 109.579 445.275C121.639 447.13 142.859 449.913 156.542 451.537C170.225 453.16 192.373 455.363 205.824 456.407C219.159 457.45 243.742 458.61 260.324 458.958C276.905 459.422 306.938 459.422 326.999 458.958C347.059 458.61 374.193 457.335 387.296 456.291C400.4 455.363 415.126 454.088 420.228 453.624C426.606 453.044 430.317 453.276 432.636 454.32C434.491 455.015 436.578 456.871 437.274 458.378C437.97 459.77 438.202 462.668 437.854 464.756C437.39 467.075 435.998 469.162 434.027 470.438C431.592 471.945 424.982 472.989 408.749 474.496C396.573 475.54 377.092 477.047 365.265 477.859C353.437 478.555 327.579 479.482 307.866 479.714C282.355 480.178 262.643 479.714 240.031 478.439C222.522 477.395 199.214 475.656 188.43 474.728C177.53 473.8 159.789 471.945 149.005 470.67C138.105 469.394 119.32 466.727 107.26 464.872C95.0848 463.016 77.9231 460.117 68.9944 458.494C60.0657 456.871 50.2094 454.32 46.9626 452.812C43.8318 451.305 38.7296 447.478 35.7148 444.231C32.5839 440.985 28.0616 434.259 25.6265 429.389C23.1914 424.403 19.2489 415.938 17.0457 410.488C14.7265 405.038 11.1319 394.602 8.92869 387.296C6.72551 379.991 3.82658 367.468 2.4351 359.467C0.927656 350.074 0 339.754 0 330.246C0 322.013 0.811699 310.301 1.85531 304.155C2.78297 297.894 4.63828 288.617 5.91381 283.515C7.30529 278.413 9.9723 269.832 12.0595 264.382C14.2627 258.932 17.8574 250.583 20.2925 245.829C22.7276 241.075 27.4818 232.726 30.9605 227.276C34.5552 221.826 40.9328 213.013 45.2232 207.563C49.5136 202.113 59.254 191.677 66.7912 184.372C74.4444 177.066 85.5763 167.326 91.606 162.804C97.6358 158.165 107.26 151.556 113.058 147.961C118.74 144.366 130.568 137.757 139.148 133.351C147.729 129.06 160.021 123.378 166.398 120.827C172.776 118.276 183.212 114.566 189.59 112.478C195.967 110.507 207.447 107.26 215.1 105.405C222.753 103.55 236.089 100.999 244.669 99.723C253.25 98.3316 268.672 96.8241 278.877 96.2443C289.893 95.6645 304.503 95.6645 314.823 96.2443C324.448 96.8241 335.812 97.7518 347.987 99.1433L346.248 93.3454C345.32 90.2146 342.305 79.7784 339.522 70.154C335.464 55.6594 334.652 51.0211 334.536 42.3243C334.536 32.8158 334.884 31.1924 338.247 24.351C340.334 20.1765 344.16 14.6106 346.943 11.9436C349.726 9.1606 354.828 5.44998 358.307 3.59467C361.786 1.73936 365.96 0.115957 367.584 0V0ZM266.469 236.552C267.165 236.552 269.136 237.016 270.76 237.712C272.383 238.292 274.47 240.611 275.514 242.698C277.253 246.177 277.253 246.757 275.282 250.931C274.006 253.714 267.629 260.671 259.744 267.977C252.438 274.818 240.959 284.79 234.233 290.124C227.508 295.458 216.26 303.46 209.302 307.982C202.229 312.62 191.561 318.998 185.531 322.245C179.501 325.607 169.065 330.825 162.34 333.84C155.614 336.971 143.323 341.957 135.09 344.972C126.741 347.987 113.058 352.161 104.709 354.365C96.2443 356.568 86.5039 358.655 83.2571 359.119C77.6912 359.815 76.8795 359.583 73.9806 356.8C71.8934 354.713 70.7338 352.509 70.7338 350.19C70.7338 348.219 71.1976 345.784 71.7774 344.74C72.2412 343.581 74.2125 342.073 76.0678 341.262C77.9231 340.45 85.1125 338.479 92.1858 336.855C99.1433 335.232 110.159 332.333 116.537 330.362C122.914 328.39 133.582 324.564 140.308 321.781C147.034 319.114 158.397 313.896 165.587 310.301C172.66 306.706 184.14 300.329 191.097 296.154C197.939 291.98 209.186 284.211 216.26 278.877C223.217 273.543 233.653 264.962 239.451 259.86C245.133 254.642 252.207 247.8 255.105 244.669C258.004 241.654 261.367 238.524 262.643 237.828C263.918 237.132 265.658 236.552 266.469 236.552Z" fill="white"/>
</svg>
